/* XPM */
static char *cfed45859914432fb5ce7688470c2115[] = {
/* columns rows colors chars-per-pixel */
"111 59 183 2 ",
"   c None",
".  c #008933",
"X  c #008D3C",
"o  c #02913F",
"O  c #0A923F",
"+  c #12973E",
"@  c #1B973F",
"#  c #16993E",
"$  c #1C9A3E",
"%  c #239D3E",
"&  c #2A9E3D",
"*  c #359F3F",
"=  c #2DA13D",
"-  c #3AA536",
";  c #34A33C",
":  c #3BA63C",
">  c #3EA93B",
",  c #45AA37",
"<  c #4CAD37",
"1  c #41A63C",
"2  c #44AA3C",
"3  c #4BAC3D",
"4  c #42A633",
"5  c #52AF35",
"6  c #53AE3D",
"7  c #5BAF3D",
"8  c #54B035",
"9  c #5AB234",
"0  c #56B03C",
"q  c #5CB13C",
"w  c #68B72E",
"e  c #6DBA2F",
"r  c #64B42F",
"t  c #75BC2E",
"y  c #78BF2E",
"u  c #63B632",
"i  c #6BB931",
"p  c #64B43C",
"a  c #6BB63C",
"s  c #6EB83B",
"d  c #6AB834",
"f  c #74BA37",
"g  c #7DBD36",
"h  c #73B73D",
"j  c #74B93C",
"k  c #7BBB3B",
"l  c #7EC02B",
"z  c #008E45",
"x  c #008D48",
"c  c #019245",
"v  c #0B9443",
"b  c #059249",
"n  c #0B944B",
"m  c #0F984E",
"M  c #129643",
"N  c #159942",
"B  c #1C9A42",
"V  c #12964C",
"C  c #11994F",
"Z  c #1D9A4B",
"A  c #1A974D",
"S  c #0D9452",
"D  c #129652",
"F  c #189556",
"G  c #149952",
"H  c #1B9B54",
"J  c #17995A",
"K  c #1C9B5B",
"L  c #239D42",
"P  c #2A9E42",
"I  c #21994E",
"U  c #339F44",
"Y  c #289752",
"T  c #249A53",
"R  c #229D5A",
"E  c #299E5C",
"W  c #25A142",
"Q  c #2DA141",
"!  c #33A341",
"~  c #3CA641",
"^  c #3FA840",
"/  c #2AA15E",
"(  c #32A15F",
")  c #249E62",
"_  c #299E62",
"`  c #27A061",
"'  c #2CA162",
"]  c #2EA26B",
"[  c #33A464",
"{  c #3AA665",
"}  c #39A866",
"|  c #34A56B",
" . c #3AA66A",
".. c #3DA96D",
"X. c #2FA470",
"o. c #3BA972",
"O. c #36A972",
"+. c #43A741",
"@. c #45A841",
"#. c #4BAB40",
"$. c #53AD40",
"%. c #5AAF41",
"&. c #63B340",
"*. c #40A669",
"=. c #43AA6E",
"-. c #45AC73",
";. c #4EAD75",
":. c #4AAE78",
">. c #44AC7A",
",. c #4AB07A",
"<. c #53B27D",
"1. c #5BB37D",
"2. c #82BE37",
"3. c #82BE38",
"4. c #BBD71E",
"5. c #BED91E",
"6. c #83C22C",
"7. c #8CC629",
"8. c #94C927",
"9. c #9BCB25",
"0. c #91C729",
"q. c #93C828",
"w. c #9BCB28",
"e. c #94C726",
"r. c #85C037",
"t. c #8BC237",
"y. c #85C039",
"u. c #8AC238",
"i. c #93C536",
"p. c #9AC735",
"a. c #97C837",
"s. c #9CC936",
"d. c #92C538",
"f. c #98C738",
"g. c #9BC938",
"h. c #A2CE24",
"j. c #A6D022",
"k. c #ACD222",
"l. c #B3D421",
"z. c #B9D721",
"x. c #A5CC33",
"c. c #AACD33",
"v. c #A2CA39",
"b. c #B1CF32",
"n. c #AFD033",
"m. c #B2D032",
"M. c #B8D232",
"N. c #CBDD17",
"B. c #C6DB1B",
"V. c #C9DC1B",
"C. c #D2DF17",
"Z. c #D1DF19",
"A. c #CFE11D",
"S. c #D3E117",
"D. c #D2E019",
"F. c #DBE419",
"G. c #4FAF80",
"H. c #57B381",
"J. c #5CB683",
"K. c #58B689",
"L. c #5CB988",
"P. c #62B887",
"I. c #64B78A",
"U. c #64BB89",
"Y. c #6CBB8A",
"T. c #68B683",
"R. c #70BD8C",
"E. c #68BA91",
"W. c #74C196",
"Q. c #76C39B",
"!. c #78C198",
"~. c #7CC6A4",
"^. c #85C9A5",
"/. c #94CDAC",
"(. c #A2D7BB",
"). c #AAD6BC",
"_. c #B8DFCB",
"`. c #BBE0CB",
"'. c #BFE4D1",
"]. c #D9EEE3",
"[. c #DCF0E4",
"{. c white",
"}. c #F5FAF7",
/* pixels */
"                                                                                                                                                                                    `.(.                                      ",
"                                                                                                                                                                                !.,.R <.                                      ",
"                                                                                                                                                                              } C . [                                         ",
"                                                                W.                                                                                                        o.m X o R                                           ",
"                                                              R [                                                                                                     -.G X B W c <.                                          ",
"                                                            } o m                                                                                               o.K n O 1 g v.= R                                             ",
"                                                            n v o R                                                                               >.O.J b n v M B ; 9 p.b.M.0 b                                               ",
"                                                            n #.Q z [                                                               K.| K K H B B L P : 3 p k 2.s.n.n.c.m.j c [                                               ",
"                                                            n p j P z /                                                       X.E Z L ! 6 p f r.a.v.c.n.c.b.m.n.c.x.x.b.t.M D                                                 ",
"                                                            n q k h ; o n ..                                              D B & 5 2.x.c.m.m.b.b.c.c.c.c.c.c.c.x.c.v.b.i.$ b                                                   ",
"                                                            n 6 j j j $.+ z R =.                                    ) G L q t.c.M.b.c.c.c.x.c.c.c.c.c.c.c.c.c.c.c.b.2.@ z }                                                   ",
"                                                            b : &.h j k a U v n ' Y.                              K B q x.M.b.c.x.c.c.c.c.n.n.c.c.c.c.c.c.c.c.c.b.f @ x                                                       ",
"                                                            H B k k y.&.u.k &.Y o b ' J.                      o.v 3 s.m.c.x.c.c.c.c.c.m.n.i.g x.c.c.c.c.c.c.c.n.q v m                                                         ",
"                                                              n %.k &.y.3.&.k k q Q X n G -.                _ M s b.n.c.c.c.c.x.n.m.x.f 3 p t.c.c.c.c.c.c.m.s.: z D                                                           ",
"                                                              G ! &.3.&.&.&.k 3.j k &.+.O c n }           R $ t.m.c.c.c.c.x.n.m.v.s 2 < t.c.c.c.c.c.x.n.c.j + c T                                                             ",
"                                                                v p &.3.3.k k &.h j j &.a @.M c D '     _ $ i.c.c.c.c.c.c.m.p.p : p i.n.m.c.c.c.x.c.m.a.: z m                                                                 ",
"                                                                n U h h k k 3.&.&.k &.k &.k &.$.B c m _ N r.n.c.c.c.c.m.s.p ; 0 s.m.c.c.c.c.c.c.m.x.p # c E                                                                   ",
"                                                                  v %.k &.&.k 3.k k k k 3.y.&.3.k $.# z p M.x.c.c.c.c.g $ % u.m.c.c.c.c.c.x.c.m.t.= z m                                                                       ",
"                                        T.Y.R.R.1.                n Z h 3.k 3.&.&.k k &.&.3.&.3.j k L ; c.c.c.c.c.n.q z : x.m.c.x.c.c.c.c.m.x.0 O b /                                                                         ",
"                              ).U.[ D z X X z X c G /  .            F ~ 3.&.&.k &.+.&.u.&.k 3.&.k #.v g b.x.c.c.b.a c ; c.c.x.c.c.c.c.c.m.t.Q c G                                                                             ",
"                            -.n z X + = 1 < 3 > = O c z b T {         m 3 k h k k %.Y #.k k &.3.k B : c.c.c.c.c.i.M B s.c.x.c.c.c.c.x.m.3.B c [                                                                               ",
"                        ;.V X M 5 7.k.B.B.N.V.B.B.k.0.d = z z n H       M p k &.k k 7 B ! j 3.&.&.M k b.c.c.c.b.2 c j m.c.c.c.c.c.x.m.l v b                                                                                   ",
"                      =.x v 9 l.Z.Z.V.V.N.V.V.V.V.V.Z.D.B.9.6 N z b c [ A M &.k h h k &.B L &.3.~ P s.c.c.c.c.i.c ! x.c.x.c.c.c.c.m.r.v b                                                                                     ",
"                    -.n # q.Z.V.B.B.B.B.B.V.V.B.V.B.B.V.V.V.V.l.t & c c z z I p k k h k &.P M #.N 6 b.c.c.c.c.7 z h m.c.c.c.c.c.n.s.B n                                                                                       ",
"                    D $ h.Z.B.V.V.B.B.V.B.V.V.V.B.B.B.B.B.B.B.V.C.4.6.: v z c N : $.a &.3.&.~ n c g m.x.c.c.c.P v i.b.c.c.c.x.c.m.6 c                                                                                         ",
"                  H + w.Z.B.B.B.B.V.B.V.V.V.V.B.V.A.A.B.B.V.V.V.B.N.Z.V.9.5 $ b z z v ! %.k 3.@.M i.b.x.c.c.s.v ! c.c.c.c.c.c.c.c.$ D                                                                                         ",
"                ;.O 8.C.B.B.V.V.V.V.B.V.V.V.V.V.B.4.V.Z.B.B.B.V.V.B.B.B.Z.Z.4.7.u ; v z x M +.! U c.c.c.c.n.j c 3 m.x.c.c.c.x.b.t.v                                                                                           ",
"                S u Z.V.Z.D.V.5.B.V.Z.N.B.B.V.B.V.0.u h.Z.V.B.V.V.V.V.V.B.B.V.C.S.B.h.f : v z c P i.n.c.x.m.6 z p b.c.c.c.c.c.b.j c /                                                                                         ",
"              ] * N.V.z.h.w 4 & & , g 4.Z.B.V.V.V.V.l & 9 5.Z.B.V.B.B.V.V.V.B.B.B.B.V.V.B.9.5 N z M 6 v.b.c.1 z j b.c.c.c.c.x.b.p c v                                                                                         ",
"            1.z , t - $ M R ) | ) F v $ t V.V.V.V.V.D.h.& % w.Z.N.B.V.V.V.B.V.B.V.B.V.B.V.Z.N.j.8 v x % g b.! c r.b.x.c.c.c.c.b.q z c H           [.`._.^.~.~.                                                                ",
"            V c o X n |               _ b - l.V.B.B.B.V.5., z w V.V.B.B.B.V.V.V.V.B.B.V.V.B.V.V.S.h.- z v 7 P z t.b.c.c.c.c.c.b.0 c P v [     G.O.( I I B Z Z I T Y _ O.I.                                                    ",
"          E c c m  .                      D P h.Z.B.V.B.N.V.i v : l.C.B.B.V.B.B.B.V.V.B.V.V.V.B.B.V.B.f v c c v i.b.c.c.c.c.c.b.3 x $.L n [ T U 1 5 w k g 2.g g h 9 1 ~ L R ;.Q.                                              ",
"         .v H (                             K B h.S.B.B.B.N.V.0.$ $ 0.V.V.V.B.V.V.V.V.V.B.V.B.V.V.B.N.D.7.B c v d.c.x.c.c.c.c.n.3 z &.#.z = f i.g.g.s.a.i.p.p.i.p.s.s.p.3.u * B [ E.                                          ",
"        =.<.                                  D $ j.V.B.V.B.V.S.4.; z u B.Z.V.B.B.V.V.B.N.B.V.B.B.V.B.B.D.9.+ z 0 m.c.c.c.c.c.n.3 z %.&.c ! s.i.i.i.d.i.i.i.i.i.d.i.i.i.p.s.s.3., M E                                         ",
"                                                S B h.D.B.V.B.B.N.B.u v % 7.B.Z.V.B.B.B.B.V.V.V.B.V.B.B.B.D.w.M z h m.c.c.c.c.n.2 z p &.M B t.i.i.i.d.d.d.d.i.i.i.d.i.i.i.i.i.p.s.3.: M  .                                    ",
"                  | |                             S % j.V.B.V.B.V.V.Z.0.$ z - 6.z.V.V.B.B.V.B.V.V.V.B.V.V.B.A.7.c N t.m.x.c.c.c.: b &.k W c r.a.i.i.p.p.p.p.s.p.p.p.i.i.t.i.i.i.d.i.s.s N E                                   ",
"                  | c / W.`.}.                      K % k.D.B.B.B.V.B.Z.l.3 z x % f 4.D.V.B.B.V.B.V.B.V.V.B.B.D.u x 3 b.c.c.c.c.! c q k ! b l s.p.i.k p 3 2 6 q h g t.s.x.s.s.p.i.i.i.p.u.& H                                 ",
"                  ..c o z K <.!.^.^.            E H D x $ j.D.B.V.B.V.B.Z.B.6.- z x $ d l.S.V.V.V.V.V.V.B.V.B.V.z.$ v 2.m.x.c.c.% b p k ! n &.y.3 % v z b v N B L % P ; : 6 s t.s.s.i.i.p.d.; V                               ",
"                    H B #.$ X . z m D V S m n b v v v Q M M 9.Z.B.B.V.B.B.V.Z.V.w.- x z B l V.V.B.B.B.V.A.V.B.B.Z.9 z 3 m.c.c.x.N M &.k ! c Q v x c ; 6 f 2.t.t.2.2.f q 3 ! % $ = p i.i.d.i.s.: b                             ",
"                    / o p 2.s q 3 ; * ; ; : 2 6 %.s j g j % + 6.D.V.B.B.V.V.B.V.Z.B.7.; z c , k.D.B.V.B.B.B.V.B.D.e.c B s.c.c.s.v M a k ! c z N 6 g i.s.p.p.s.p.s.s.p.v.s.t.u.g p p t.i.i.d.i.i.: m :.                        ",
"                      V B g t.r.r.t.t.2.t.t.r.r.r.2.2.2.t.k L c i V.V.B.B.V.B.B.B.V.D.z.u v z % w.V.B.V.B.V.V.B.V.5.; z f m.c.t.c L s j L x ~ g s.s.i.i.i.i.i.i.i.i.i.i.i.i.s.s.s.p.i.i.i.i.i.i.f.: m =.                      ",
"                      { z ^ 2.3.g 3.2.3.3.3.3.3.3.3.2.2.3.3.g : z , 4.D.B.B.V.V.V.B.V.V.D.7.$ z # 9.C.B.V.V.B.V.B.D.9 x 3 m.c.g z P &.h b L i.p.d.i.i.i.i.i.i.i.i.i.i.i.i.i.i.i.i.i.i.i.i.i.i.i.i.s., b                       ",
"                        H z p 2.3.3.3.3.3.3.3.3.3.3.g 3.3.3.3.r.6 b $ l B.D.B.V.B.N.V.B.B.S.k.= z $ h.Z.B.V.B.V.B.C.6.b B s.m.q x ~ 3.@.z 2 p.i.i.i.i.i.i.i.i.i.i.i.d.d.t.i.i.t.i.i.i.i.i.i.i.i.i.i.i.2 b :.                  ",
"                          m B g 3.2.2.3.3.3.2.3.2.t.t.t.2.r.3.3.2.a L z ; q.V.V.B.B.V.V.B.B.S.k.= x : z.V.B.V.V.B.V.h.+ c t.m.+.x $.&.B c k p.i.i.i.i.i.i.i.a.i.i.i.p.s.s.s.s.s.p.p.p.s.p.p.s.i.i.i.i.a.2 b -.                ",
"                            n ; 2.3.g 3.3.3.2.f 2 3 q p h k g 3.2.d.u.q L v < k.Z.B.B.V.V.V.B.S.0.v c y S.B.V.B.V.V.4.; z s c.P z q $.z L i.i.i.i.i.i.i.i.i.p.s.p.2.g s p 0 3 #.3 3 3 0 p a j r.u.s.g.s.s.6 v R -.  L. .[ Y.  ",
"                              n ; g t.3.g 3.3.g q : % L B N N L P = : , ^ M c B y V.V.B.V.B.B.B.D.9 x ; B.V.B.V.V.B.V.9 x 3 s.c m &.P z 6 s.i.i.i.i.i.i.p.i.j < ; $ c X c c b n b b b c z c c M L Q : 2 3 3 B X o c c V ..    ",
"                                n N p r.2.3.3.3.u.t.3.j p 6 2 ! P N c z b b c z x - l.D.B.B.V.B.V.l.% c 9.C.B.V.V.B.F.t x : a z Q #.c M u.i.i.i.i.i.p.g.p % v b x )  .[                       J n b b b x z c v m V  .        ",
"                                  J M ; a u.r.r.3.3.2.r.r.t.t.2.g k j f p 6 3 1 ! M B 0.D.B.B.V.V.S.w x 8 Z.B.B.B.B.C.7.c B B c +.L z ^ p.i.i.i.i.i.y.: c S [                                           U.L.H.                ",
"                                      H V : a g u.r.y.g g 3.3.3.2.2.2.t.2.u.t.r.y.l ! m l A.A.B.B.N.k.B # l.N.V.V.B.S.9.b c c + ^ c M j s.i.i.i.p.f B c '                                                                     ",
"                                          n v L +.s y.u.t.2.3.3.3.3.3.3.3.g 3.3.3.y.y.#.c u B.A.B.B.V.u x l Z.B.V.B.N.h.v c c ! B c 3 s.i.i.i.s.s O n                                                                         ",
"                                                S n B - q f g u.u.3.3.3.3.3.g 3.3.3.y.u.u v > l.C.B.Z.j.b ; V.B.B.V.V.k.v b P Q c B r.s.t.i.s.p c G                                                                           ",
"                                                    | K G N L : 0 h 3.u.u.2.r.y.3.3.k k l l C N 9.Z.B.V., c 9.D.B.B.V.h.v M ^ c c p s.t.i.s.p c G                                                                             ",
"                                                            | K H Z % ! < p h u.y.y.y.y.l y.k W O 7.D.F.h.c , V.B.B.S.8.c v v c 2 a.i.a.s.0 c H                                                                               ",
"                                                                      z o v $ = #.&.&.l s l &.$.v v u 6.0.= b 0.D.V.F.w z c c Q u.u.u.y.3 c C                                                                                 ",
"                                                                        }.].~.K c c V N N c c c c c z c v c c N , < < M c c c L Q W B N c c C K A                                                                             ",
"                                                                    (./.W.../ C c c c c c c c c c c b c c c c c x x z b c c c c c c c c c c c c c c G / J.                                                                    ",
"                                                                [ ' C X X o o c c c c c c c c c c c c c c c c b c c c c c c c c c c c c c c c b c c c c n / P.                                                                ",
"                                                          / m v c o c c c c c c c m c c c c c m c b c c c c c c c c c c c c c c c c c c c c c c c c c c c X c m E  .                                                          ",
"                                                    | v c c c c c c c c c c c c c c c c c c c c c c c c b b c c c c c c c c c c c c c c c c b c c c c c c c c c o c c v / J.                                                  "
};
